<mxfile host="app.diagrams.net" modified="2023-12-26T08:24:52.467Z" agent="Mozilla/5.0 (Windows NT 10.0; Win64; x64) AppleWebKit/537.36 (KHTML, like Gecko) Chrome/118.0.0.0 Safari/537.36" etag="RzGWiSoW8Il-rJ5_nqLI" version="22.1.11" type="github">
  <diagram id="C5RBs43oDa-KdzZeNtuy" name="Page-1">
    <mxGraphModel dx="1434" dy="758" grid="0" gridSize="10" guides="1" tooltips="1" connect="1" arrows="1" fold="1" page="1" pageScale="1" pageWidth="827" pageHeight="1169" math="0" shadow="0">
      <root>
        <mxCell id="WIyWlLk6GJQsqaUBKTNV-0" />
        <mxCell id="WIyWlLk6GJQsqaUBKTNV-1" parent="WIyWlLk6GJQsqaUBKTNV-0" />
        <mxCell id="esxEYCC029aT0IeubUOa-2" value="" style="edgeStyle=orthogonalEdgeStyle;rounded=0;orthogonalLoop=1;jettySize=auto;html=1;" edge="1" parent="WIyWlLk6GJQsqaUBKTNV-1" source="esxEYCC029aT0IeubUOa-0" target="esxEYCC029aT0IeubUOa-3">
          <mxGeometry relative="1" as="geometry">
            <mxPoint x="140" y="288" as="targetPoint" />
          </mxGeometry>
        </mxCell>
        <mxCell id="esxEYCC029aT0IeubUOa-0" value="" style="sketch=0;html=1;aspect=fixed;strokeColor=none;shadow=0;fillColor=#3B8DF1;verticalAlign=top;labelPosition=center;verticalLabelPosition=bottom;shape=mxgraph.gcp2.play_start" vertex="1" parent="WIyWlLk6GJQsqaUBKTNV-1">
          <mxGeometry x="40" y="268" width="40" height="40" as="geometry" />
        </mxCell>
        <mxCell id="esxEYCC029aT0IeubUOa-7" value="" style="edgeStyle=orthogonalEdgeStyle;rounded=0;orthogonalLoop=1;jettySize=auto;html=1;" edge="1" parent="WIyWlLk6GJQsqaUBKTNV-1" source="esxEYCC029aT0IeubUOa-3" target="esxEYCC029aT0IeubUOa-6">
          <mxGeometry relative="1" as="geometry" />
        </mxCell>
        <mxCell id="esxEYCC029aT0IeubUOa-3" value="" style="sketch=0;points=[[0,0,0],[0.25,0,0],[0.5,0,0],[0.75,0,0],[1,0,0],[0,1,0],[0.25,1,0],[0.5,1,0],[0.75,1,0],[1,1,0],[0,0.25,0],[0,0.5,0],[0,0.75,0],[1,0.25,0],[1,0.5,0],[1,0.75,0]];outlineConnect=0;fontColor=#232F3E;fillColor=#8C4FFF;strokeColor=#ffffff;dashed=0;verticalLabelPosition=bottom;verticalAlign=top;align=center;html=1;fontSize=12;fontStyle=0;aspect=fixed;shape=mxgraph.aws4.resourceIcon;resIcon=mxgraph.aws4.managed_streaming_for_kafka;" vertex="1" parent="WIyWlLk6GJQsqaUBKTNV-1">
          <mxGeometry x="150" y="249" width="78" height="78" as="geometry" />
        </mxCell>
        <mxCell id="esxEYCC029aT0IeubUOa-6" value="&lt;b&gt;&lt;font style=&quot;font-size: 17px;&quot;&gt;flink&lt;/font&gt;&lt;/b&gt;" style="whiteSpace=wrap;html=1;verticalAlign=top;fillColor=#FFFFFF;strokeColor=default;fontColor=#232F3E;sketch=0;dashed=0;fontStyle=0;" vertex="1" parent="WIyWlLk6GJQsqaUBKTNV-1">
          <mxGeometry x="320" y="100" width="660" height="375" as="geometry" />
        </mxCell>
        <mxCell id="esxEYCC029aT0IeubUOa-10" value="" style="edgeStyle=orthogonalEdgeStyle;rounded=0;orthogonalLoop=1;jettySize=auto;html=1;" edge="1" parent="WIyWlLk6GJQsqaUBKTNV-1" source="esxEYCC029aT0IeubUOa-8" target="esxEYCC029aT0IeubUOa-9">
          <mxGeometry relative="1" as="geometry" />
        </mxCell>
        <mxCell id="esxEYCC029aT0IeubUOa-8" value="&lt;b&gt;外部数据源&lt;/b&gt;" style="image;sketch=0;aspect=fixed;html=1;points=[];align=center;fontSize=12;image=img/lib/mscae/Database_General.svg;" vertex="1" parent="WIyWlLk6GJQsqaUBKTNV-1">
          <mxGeometry x="350" y="225" width="38" height="50" as="geometry" />
        </mxCell>
        <mxCell id="esxEYCC029aT0IeubUOa-12" value="" style="edgeStyle=orthogonalEdgeStyle;rounded=0;orthogonalLoop=1;jettySize=auto;html=1;" edge="1" parent="WIyWlLk6GJQsqaUBKTNV-1" source="esxEYCC029aT0IeubUOa-9" target="esxEYCC029aT0IeubUOa-11">
          <mxGeometry relative="1" as="geometry" />
        </mxCell>
        <mxCell id="esxEYCC029aT0IeubUOa-9" value="&lt;b&gt;&lt;br&gt;select语句执行&lt;/b&gt;" style="whiteSpace=wrap;html=1;verticalAlign=top;labelBackgroundColor=default;sketch=0;" vertex="1" parent="WIyWlLk6GJQsqaUBKTNV-1">
          <mxGeometry x="427" y="220" width="120" height="60" as="geometry" />
        </mxCell>
        <mxCell id="esxEYCC029aT0IeubUOa-14" value="" style="edgeStyle=orthogonalEdgeStyle;rounded=0;orthogonalLoop=1;jettySize=auto;html=1;" edge="1" parent="WIyWlLk6GJQsqaUBKTNV-1" source="esxEYCC029aT0IeubUOa-11" target="esxEYCC029aT0IeubUOa-13">
          <mxGeometry relative="1" as="geometry" />
        </mxCell>
        <mxCell id="esxEYCC029aT0IeubUOa-11" value="&lt;b&gt;&lt;br&gt;向上汇总&lt;/b&gt;" style="whiteSpace=wrap;html=1;verticalAlign=top;labelBackgroundColor=default;sketch=0;" vertex="1" parent="WIyWlLk6GJQsqaUBKTNV-1">
          <mxGeometry x="627" y="220" width="120" height="60" as="geometry" />
        </mxCell>
        <mxCell id="esxEYCC029aT0IeubUOa-16" value="" style="edgeStyle=orthogonalEdgeStyle;rounded=0;orthogonalLoop=1;jettySize=auto;html=1;" edge="1" parent="WIyWlLk6GJQsqaUBKTNV-1" source="esxEYCC029aT0IeubUOa-13">
          <mxGeometry relative="1" as="geometry">
            <mxPoint x="887" y="360" as="targetPoint" />
          </mxGeometry>
        </mxCell>
        <mxCell id="esxEYCC029aT0IeubUOa-13" value="&lt;br&gt;&lt;b&gt;执行入库&lt;/b&gt;" style="whiteSpace=wrap;html=1;verticalAlign=top;labelBackgroundColor=default;sketch=0;" vertex="1" parent="WIyWlLk6GJQsqaUBKTNV-1">
          <mxGeometry x="827" y="220" width="120" height="60" as="geometry" />
        </mxCell>
        <mxCell id="esxEYCC029aT0IeubUOa-24" value="" style="edgeStyle=orthogonalEdgeStyle;rounded=0;orthogonalLoop=1;jettySize=auto;html=1;entryX=0.04;entryY=0.348;entryDx=0;entryDy=0;entryPerimeter=0;shape=flexArrow;fillColor=#f8cecc;strokeColor=#b85450;" edge="1" parent="WIyWlLk6GJQsqaUBKTNV-1" source="esxEYCC029aT0IeubUOa-18" target="esxEYCC029aT0IeubUOa-19">
          <mxGeometry relative="1" as="geometry">
            <mxPoint x="945" y="390" as="targetPoint" />
          </mxGeometry>
        </mxCell>
        <mxCell id="esxEYCC029aT0IeubUOa-18" value="&lt;b&gt;指标结果库&lt;/b&gt;" style="image;sketch=0;aspect=fixed;html=1;points=[];align=center;fontSize=12;image=img/lib/mscae/Database_General.svg;" vertex="1" parent="WIyWlLk6GJQsqaUBKTNV-1">
          <mxGeometry x="868" y="365" width="38" height="50" as="geometry" />
        </mxCell>
        <mxCell id="esxEYCC029aT0IeubUOa-19" value="" style="image;sketch=0;aspect=fixed;html=1;points=[];align=center;fontSize=12;image=img/lib/mscae/VM_Windows_Non_Azure.svg;" vertex="1" parent="WIyWlLk6GJQsqaUBKTNV-1">
          <mxGeometry x="1058" y="359" width="96.74" height="89" as="geometry" />
        </mxCell>
        <mxCell id="esxEYCC029aT0IeubUOa-28" value="" style="edgeStyle=orthogonalEdgeStyle;rounded=0;orthogonalLoop=1;jettySize=auto;html=1;" edge="1" parent="WIyWlLk6GJQsqaUBKTNV-1" source="esxEYCC029aT0IeubUOa-26" target="esxEYCC029aT0IeubUOa-27">
          <mxGeometry relative="1" as="geometry" />
        </mxCell>
        <mxCell id="esxEYCC029aT0IeubUOa-26" value="&lt;b&gt;start&lt;/b&gt;" style="outlineConnect=0;dashed=0;verticalLabelPosition=bottom;verticalAlign=top;align=center;html=1;shape=mxgraph.aws3.http_2_protocol;fillColor=#5294CF;gradientColor=none;" vertex="1" parent="WIyWlLk6GJQsqaUBKTNV-1">
          <mxGeometry x="50" y="668" width="63" height="66" as="geometry" />
        </mxCell>
        <mxCell id="esxEYCC029aT0IeubUOa-30" value="" style="edgeStyle=orthogonalEdgeStyle;rounded=0;orthogonalLoop=1;jettySize=auto;html=1;" edge="1" parent="WIyWlLk6GJQsqaUBKTNV-1" source="esxEYCC029aT0IeubUOa-27" target="esxEYCC029aT0IeubUOa-29">
          <mxGeometry relative="1" as="geometry" />
        </mxCell>
        <mxCell id="esxEYCC029aT0IeubUOa-27" value="&lt;br&gt;指标计算接口" style="whiteSpace=wrap;html=1;verticalAlign=top;fillColor=#5294CF;dashed=0;gradientColor=none;" vertex="1" parent="WIyWlLk6GJQsqaUBKTNV-1">
          <mxGeometry x="164.5" y="671" width="120" height="60" as="geometry" />
        </mxCell>
        <mxCell id="esxEYCC029aT0IeubUOa-32" value="" style="edgeStyle=orthogonalEdgeStyle;rounded=0;orthogonalLoop=1;jettySize=auto;html=1;" edge="1" parent="WIyWlLk6GJQsqaUBKTNV-1" source="esxEYCC029aT0IeubUOa-29" target="esxEYCC029aT0IeubUOa-31">
          <mxGeometry relative="1" as="geometry" />
        </mxCell>
        <mxCell id="esxEYCC029aT0IeubUOa-65" value="" style="edgeStyle=orthogonalEdgeStyle;rounded=0;orthogonalLoop=1;jettySize=auto;html=1;" edge="1" parent="WIyWlLk6GJQsqaUBKTNV-1" source="esxEYCC029aT0IeubUOa-29" target="esxEYCC029aT0IeubUOa-64">
          <mxGeometry relative="1" as="geometry" />
        </mxCell>
        <mxCell id="esxEYCC029aT0IeubUOa-29" value="&lt;br&gt;更新监控状态" style="whiteSpace=wrap;html=1;verticalAlign=top;fillColor=#5294CF;dashed=0;gradientColor=none;" vertex="1" parent="WIyWlLk6GJQsqaUBKTNV-1">
          <mxGeometry x="364.5" y="671" width="120" height="60" as="geometry" />
        </mxCell>
        <mxCell id="esxEYCC029aT0IeubUOa-34" value="" style="edgeStyle=orthogonalEdgeStyle;rounded=0;orthogonalLoop=1;jettySize=auto;html=1;" edge="1" parent="WIyWlLk6GJQsqaUBKTNV-1" source="esxEYCC029aT0IeubUOa-31" target="esxEYCC029aT0IeubUOa-33">
          <mxGeometry relative="1" as="geometry" />
        </mxCell>
        <mxCell id="esxEYCC029aT0IeubUOa-31" value="&lt;br&gt;查询挂起指标" style="whiteSpace=wrap;html=1;verticalAlign=top;fillColor=#5294CF;dashed=0;gradientColor=none;" vertex="1" parent="WIyWlLk6GJQsqaUBKTNV-1">
          <mxGeometry x="564.5" y="671" width="120" height="60" as="geometry" />
        </mxCell>
        <mxCell id="esxEYCC029aT0IeubUOa-37" style="edgeStyle=orthogonalEdgeStyle;rounded=0;orthogonalLoop=1;jettySize=auto;html=1;exitX=0.5;exitY=1;exitDx=0;exitDy=0;fontStyle=1" edge="1" parent="WIyWlLk6GJQsqaUBKTNV-1" source="esxEYCC029aT0IeubUOa-33">
          <mxGeometry relative="1" as="geometry">
            <mxPoint x="824.5" y="826" as="targetPoint" />
          </mxGeometry>
        </mxCell>
        <mxCell id="esxEYCC029aT0IeubUOa-50" value="是" style="edgeLabel;html=1;align=center;verticalAlign=middle;resizable=0;points=[];" vertex="1" connectable="0" parent="esxEYCC029aT0IeubUOa-37">
          <mxGeometry x="-0.3217" relative="1" as="geometry">
            <mxPoint as="offset" />
          </mxGeometry>
        </mxCell>
        <mxCell id="esxEYCC029aT0IeubUOa-56" value="" style="edgeStyle=orthogonalEdgeStyle;rounded=0;orthogonalLoop=1;jettySize=auto;html=1;" edge="1" parent="WIyWlLk6GJQsqaUBKTNV-1" source="esxEYCC029aT0IeubUOa-33" target="esxEYCC029aT0IeubUOa-54">
          <mxGeometry relative="1" as="geometry" />
        </mxCell>
        <mxCell id="esxEYCC029aT0IeubUOa-33" value="&lt;br&gt;&lt;br&gt;基础指标？" style="rhombus;whiteSpace=wrap;html=1;verticalAlign=top;fillColor=#5294CF;dashed=0;gradientColor=none;" vertex="1" parent="WIyWlLk6GJQsqaUBKTNV-1">
          <mxGeometry x="784.5" y="661" width="80" height="80" as="geometry" />
        </mxCell>
        <mxCell id="esxEYCC029aT0IeubUOa-45" value="" style="edgeStyle=orthogonalEdgeStyle;rounded=0;orthogonalLoop=1;jettySize=auto;html=1;" edge="1" parent="WIyWlLk6GJQsqaUBKTNV-1" source="esxEYCC029aT0IeubUOa-38" target="esxEYCC029aT0IeubUOa-43">
          <mxGeometry relative="1" as="geometry" />
        </mxCell>
        <mxCell id="esxEYCC029aT0IeubUOa-38" value="&lt;b&gt;外部数据源&lt;/b&gt;" style="image;sketch=0;aspect=fixed;html=1;points=[];align=center;fontSize=12;image=img/lib/mscae/Database_General.svg;" vertex="1" parent="WIyWlLk6GJQsqaUBKTNV-1">
          <mxGeometry x="791.8199999999999" y="826" width="65.36" height="86" as="geometry" />
        </mxCell>
        <mxCell id="esxEYCC029aT0IeubUOa-57" value="" style="edgeStyle=orthogonalEdgeStyle;rounded=0;orthogonalLoop=1;jettySize=auto;html=1;" edge="1" parent="WIyWlLk6GJQsqaUBKTNV-1" source="esxEYCC029aT0IeubUOa-43" target="esxEYCC029aT0IeubUOa-46">
          <mxGeometry relative="1" as="geometry" />
        </mxCell>
        <mxCell id="esxEYCC029aT0IeubUOa-43" value="&lt;br&gt;存储中间结果" style="whiteSpace=wrap;html=1;verticalAlign=top;fillColor=#5294CF;dashed=0;gradientColor=none;" vertex="1" parent="WIyWlLk6GJQsqaUBKTNV-1">
          <mxGeometry x="569" y="839" width="120" height="60" as="geometry" />
        </mxCell>
        <mxCell id="esxEYCC029aT0IeubUOa-59" value="" style="edgeStyle=orthogonalEdgeStyle;rounded=0;orthogonalLoop=1;jettySize=auto;html=1;" edge="1" parent="WIyWlLk6GJQsqaUBKTNV-1" source="esxEYCC029aT0IeubUOa-46" target="esxEYCC029aT0IeubUOa-58">
          <mxGeometry relative="1" as="geometry" />
        </mxCell>
        <mxCell id="esxEYCC029aT0IeubUOa-46" value="&lt;br&gt;执行向上汇总" style="whiteSpace=wrap;html=1;verticalAlign=top;fillColor=#5294CF;dashed=0;gradientColor=none;" vertex="1" parent="WIyWlLk6GJQsqaUBKTNV-1">
          <mxGeometry x="569" y="965" width="120" height="60" as="geometry" />
        </mxCell>
        <mxCell id="esxEYCC029aT0IeubUOa-66" style="edgeStyle=orthogonalEdgeStyle;rounded=0;orthogonalLoop=1;jettySize=auto;html=1;exitX=0.5;exitY=1;exitDx=0;exitDy=0;strokeColor=#66B2FF;" edge="1" parent="WIyWlLk6GJQsqaUBKTNV-1" source="esxEYCC029aT0IeubUOa-54" target="esxEYCC029aT0IeubUOa-60">
          <mxGeometry relative="1" as="geometry">
            <Array as="points">
              <mxPoint x="981" y="808" />
              <mxPoint x="245" y="808" />
            </Array>
          </mxGeometry>
        </mxCell>
        <mxCell id="esxEYCC029aT0IeubUOa-67" value="连接指标库" style="edgeLabel;html=1;align=center;verticalAlign=middle;resizable=0;points=[];" vertex="1" connectable="0" parent="esxEYCC029aT0IeubUOa-66">
          <mxGeometry x="0.1362" y="3" relative="1" as="geometry">
            <mxPoint x="34" y="-3" as="offset" />
          </mxGeometry>
        </mxCell>
        <mxCell id="esxEYCC029aT0IeubUOa-54" value="&lt;br&gt;&lt;br&gt;依赖完成？" style="rhombus;whiteSpace=wrap;html=1;verticalAlign=top;fillColor=#5294CF;dashed=0;gradientColor=none;" vertex="1" parent="WIyWlLk6GJQsqaUBKTNV-1">
          <mxGeometry x="941" y="661" width="80" height="80" as="geometry" />
        </mxCell>
        <mxCell id="esxEYCC029aT0IeubUOa-62" value="" style="edgeStyle=orthogonalEdgeStyle;rounded=0;orthogonalLoop=1;jettySize=auto;html=1;" edge="1" parent="WIyWlLk6GJQsqaUBKTNV-1" source="esxEYCC029aT0IeubUOa-58" target="esxEYCC029aT0IeubUOa-60">
          <mxGeometry relative="1" as="geometry" />
        </mxCell>
        <mxCell id="esxEYCC029aT0IeubUOa-63" style="edgeStyle=orthogonalEdgeStyle;rounded=0;orthogonalLoop=1;jettySize=auto;html=1;entryX=0.5;entryY=1;entryDx=0;entryDy=0;" edge="1" parent="WIyWlLk6GJQsqaUBKTNV-1" source="esxEYCC029aT0IeubUOa-58" target="esxEYCC029aT0IeubUOa-29">
          <mxGeometry relative="1" as="geometry" />
        </mxCell>
        <mxCell id="esxEYCC029aT0IeubUOa-58" value="&lt;br&gt;存储计算结果" style="whiteSpace=wrap;html=1;verticalAlign=top;fillColor=#5294CF;dashed=0;gradientColor=none;" vertex="1" parent="WIyWlLk6GJQsqaUBKTNV-1">
          <mxGeometry x="364.5" y="965" width="120" height="60" as="geometry" />
        </mxCell>
        <mxCell id="esxEYCC029aT0IeubUOa-68" style="edgeStyle=orthogonalEdgeStyle;rounded=0;orthogonalLoop=1;jettySize=auto;html=1;entryX=0;entryY=0.5;entryDx=0;entryDy=0;strokeColor=#66B2FF;" edge="1" parent="WIyWlLk6GJQsqaUBKTNV-1" source="esxEYCC029aT0IeubUOa-60" target="esxEYCC029aT0IeubUOa-43">
          <mxGeometry relative="1" as="geometry">
            <Array as="points">
              <mxPoint x="312" y="995" />
              <mxPoint x="312" y="869" />
            </Array>
          </mxGeometry>
        </mxCell>
        <mxCell id="esxEYCC029aT0IeubUOa-60" value="&lt;b&gt;指标结果库&lt;/b&gt;" style="image;sketch=0;aspect=fixed;html=1;points=[];align=center;fontSize=12;image=img/lib/mscae/Database_General.svg;" vertex="1" parent="WIyWlLk6GJQsqaUBKTNV-1">
          <mxGeometry x="211.99999999999994" y="952" width="65.36" height="86" as="geometry" />
        </mxCell>
        <mxCell id="esxEYCC029aT0IeubUOa-64" value="&lt;br&gt;end" style="ellipse;whiteSpace=wrap;html=1;verticalAlign=top;fillColor=#5294CF;dashed=0;gradientColor=none;" vertex="1" parent="WIyWlLk6GJQsqaUBKTNV-1">
          <mxGeometry x="384.5" y="556" width="80.5" height="45" as="geometry" />
        </mxCell>
        <mxCell id="esxEYCC029aT0IeubUOa-69" value="" style="sketch=0;points=[[0,0,0],[0.25,0,0],[0.5,0,0],[0.75,0,0],[1,0,0],[0,1,0],[0.25,1,0],[0.5,1,0],[0.75,1,0],[1,1,0],[0,0.25,0],[0,0.5,0],[0,0.75,0],[1,0.25,0],[1,0.5,0],[1,0.75,0]];outlineConnect=0;fontColor=#232F3E;fillColor=#8C4FFF;strokeColor=#ffffff;dashed=0;verticalLabelPosition=bottom;verticalAlign=top;align=center;html=1;fontSize=12;fontStyle=0;aspect=fixed;shape=mxgraph.aws4.resourceIcon;resIcon=mxgraph.aws4.managed_service_for_apache_flink;" vertex="1" parent="WIyWlLk6GJQsqaUBKTNV-1">
          <mxGeometry x="629" y="126" width="38" height="38" as="geometry" />
        </mxCell>
      </root>
    </mxGraphModel>
  </diagram>
</mxfile>
